<mxfile host="app.diagrams.net" modified="2022-02-11T06:34:07.831Z" agent="5.0 (Macintosh)" etag="55uD3Ae11wCivWoxBjHv" version="16.5.6" type="github">
  <diagram id="WdBV3kmxdD54pdBcz_uf" name="Page-1">
    <mxGraphModel dx="2570" dy="904" grid="1" gridSize="10" guides="1" tooltips="1" connect="1" arrows="1" fold="1" page="1" pageScale="1" pageWidth="850" pageHeight="1100" math="0" shadow="0">
      <root>
        <mxCell id="0" />
        <mxCell id="1" parent="0" />
        <mxCell id="lrQn8u2nCKiRlerPiKT--4" value="" style="rounded=0;whiteSpace=wrap;html=1;fillColor=#fff2cc;strokeColor=#d6b656;" parent="1" vertex="1">
          <mxGeometry x="-240" y="500" width="170" height="50" as="geometry" />
        </mxCell>
        <mxCell id="lrQn8u2nCKiRlerPiKT--3" value="" style="rounded=0;whiteSpace=wrap;html=1;fillColor=#fff2cc;strokeColor=#d6b656;" parent="1" vertex="1">
          <mxGeometry x="-10" y="120" width="250" height="50" as="geometry" />
        </mxCell>
        <mxCell id="bC28SBbU8kap-LRpYeoy-1" value="" style="rounded=0;whiteSpace=wrap;html=1;" parent="1" vertex="1">
          <mxGeometry x="-240" y="170" width="1080" height="310" as="geometry" />
        </mxCell>
        <mxCell id="bC28SBbU8kap-LRpYeoy-22" value="" style="rounded=1;whiteSpace=wrap;html=1;fillColor=none;strokeColor=#0000FF;" parent="1" vertex="1">
          <mxGeometry x="380" y="170" width="210" height="290" as="geometry" />
        </mxCell>
        <mxCell id="bC28SBbU8kap-LRpYeoy-40" value="" style="rounded=0;whiteSpace=wrap;html=1;" parent="1" vertex="1">
          <mxGeometry x="-240" y="550" width="890" height="310" as="geometry" />
        </mxCell>
        <mxCell id="bC28SBbU8kap-LRpYeoy-57" value="" style="rounded=1;whiteSpace=wrap;html=1;fillColor=none;strokeColor=#0000FF;" parent="1" vertex="1">
          <mxGeometry x="30" y="560" width="210" height="290" as="geometry" />
        </mxCell>
        <mxCell id="bC28SBbU8kap-LRpYeoy-21" value="" style="rounded=1;whiteSpace=wrap;html=1;fillColor=none;strokeColor=#0000FF;" parent="1" vertex="1">
          <mxGeometry x="-60" y="180" width="230" height="290" as="geometry" />
        </mxCell>
        <mxCell id="bC28SBbU8kap-LRpYeoy-11" value="" style="rounded=1;whiteSpace=wrap;html=1;fillColor=none;strokeColor=#33D61A;" parent="1" vertex="1">
          <mxGeometry x="-215" y="180" width="110" height="290" as="geometry" />
        </mxCell>
        <mxCell id="bC28SBbU8kap-LRpYeoy-2" value="AuthorizationServer" style="text;html=1;align=center;verticalAlign=middle;resizable=0;points=[];autosize=1;strokeColor=none;fillColor=none;" parent="1" vertex="1">
          <mxGeometry x="10" y="140" width="120" height="20" as="geometry" />
        </mxCell>
        <mxCell id="bC28SBbU8kap-LRpYeoy-3" value="@EnableResourceServer" style="text;html=1;align=center;verticalAlign=middle;resizable=0;points=[];autosize=1;strokeColor=#d79b00;fillColor=#ffe6cc;" parent="1" vertex="1">
          <mxGeometry x="-200" y="130" width="150" height="20" as="geometry" />
        </mxCell>
        <mxCell id="bC28SBbU8kap-LRpYeoy-4" value="server.port=&lt;b&gt;&lt;font color=&quot;#FF0000&quot;&gt;8081&lt;/font&gt;&lt;/b&gt;" style="text;whiteSpace=wrap;html=1;" parent="1" vertex="1">
          <mxGeometry x="-200" y="180" width="120" height="30" as="geometry" />
        </mxCell>
        <mxCell id="bC28SBbU8kap-LRpYeoy-5" value="clientId" style="text;whiteSpace=wrap;html=1;" parent="1" vertex="1">
          <mxGeometry x="-200" y="200" width="60" height="30" as="geometry" />
        </mxCell>
        <mxCell id="bC28SBbU8kap-LRpYeoy-6" value="clientSecret" style="text;whiteSpace=wrap;html=1;" parent="1" vertex="1">
          <mxGeometry x="-200" y="220" width="90" height="30" as="geometry" />
        </mxCell>
        <mxCell id="bC28SBbU8kap-LRpYeoy-7" value="redirectUris" style="text;whiteSpace=wrap;html=1;" parent="1" vertex="1">
          <mxGeometry x="-200" y="240" width="90" height="30" as="geometry" />
        </mxCell>
        <mxCell id="bC28SBbU8kap-LRpYeoy-8" value="username" style="text;whiteSpace=wrap;html=1;" parent="1" vertex="1">
          <mxGeometry x="-195" y="430" width="80" height="30" as="geometry" />
        </mxCell>
        <mxCell id="bC28SBbU8kap-LRpYeoy-10" value="password" style="text;whiteSpace=wrap;html=1;" parent="1" vertex="1">
          <mxGeometry x="-195" y="400" width="80" height="30" as="geometry" />
        </mxCell>
        <mxCell id="bC28SBbU8kap-LRpYeoy-12" value="@EnableAuthorizationServer" style="text;whiteSpace=wrap;html=1;fillColor=#ffe6cc;strokeColor=#d79b00;" parent="1" vertex="1">
          <mxGeometry x="-60" y="190" width="180" height="30" as="geometry" />
        </mxCell>
        <mxCell id="bC28SBbU8kap-LRpYeoy-13" value="AuthorizationServerConfigurerAdapter" style="text;whiteSpace=wrap;html=1;" parent="1" vertex="1">
          <mxGeometry x="-40" y="210" width="220" height="20" as="geometry" />
        </mxCell>
        <mxCell id="bC28SBbU8kap-LRpYeoy-14" value="clients" style="text;whiteSpace=wrap;html=1;" parent="1" vertex="1">
          <mxGeometry x="-20" y="240" width="60" height="30" as="geometry" />
        </mxCell>
        <mxCell id="bC28SBbU8kap-LRpYeoy-15" value="&lt;div&gt;tokenKeyAccess&amp;nbsp;&amp;nbsp;&amp;nbsp; permitAll()&lt;br&gt;&lt;/div&gt;" style="text;whiteSpace=wrap;html=1;" parent="1" vertex="1">
          <mxGeometry x="-30" y="280" width="110" height="30" as="geometry" />
        </mxCell>
        <mxCell id="bC28SBbU8kap-LRpYeoy-16" value="checkTokenAccess isAuthenticated()" style="text;whiteSpace=wrap;html=1;" parent="1" vertex="1">
          <mxGeometry x="-40" y="330" width="130" height="30" as="geometry" />
        </mxCell>
        <mxCell id="bC28SBbU8kap-LRpYeoy-17" value="WebSecurityConfigurerAdapter" style="text;whiteSpace=wrap;html=1;" parent="1" vertex="1">
          <mxGeometry x="390" y="180" width="190" height="30" as="geometry" />
        </mxCell>
        <mxCell id="bC28SBbU8kap-LRpYeoy-18" value="" style="endArrow=classic;html=1;rounded=0;exitX=0.5;exitY=0.138;exitDx=0;exitDy=0;exitPerimeter=0;entryX=0;entryY=0.25;entryDx=0;entryDy=0;" parent="1" source="bC28SBbU8kap-LRpYeoy-11" target="bC28SBbU8kap-LRpYeoy-14" edge="1">
          <mxGeometry width="50" height="50" relative="1" as="geometry">
            <mxPoint x="400" y="340" as="sourcePoint" />
            <mxPoint x="450" y="290" as="targetPoint" />
          </mxGeometry>
        </mxCell>
        <mxCell id="bC28SBbU8kap-LRpYeoy-19" value="" style="endArrow=classic;html=1;rounded=0;" parent="1" edge="1">
          <mxGeometry width="50" height="50" relative="1" as="geometry">
            <mxPoint x="-130" y="240" as="sourcePoint" />
            <mxPoint x="-20" y="258" as="targetPoint" />
          </mxGeometry>
        </mxCell>
        <mxCell id="bC28SBbU8kap-LRpYeoy-20" value="" style="endArrow=classic;html=1;rounded=0;exitX=0.778;exitY=0.667;exitDx=0;exitDy=0;exitPerimeter=0;" parent="1" source="bC28SBbU8kap-LRpYeoy-7" edge="1">
          <mxGeometry width="50" height="50" relative="1" as="geometry">
            <mxPoint x="-120" y="250.0000000000001" as="sourcePoint" />
            <mxPoint x="-30" y="260" as="targetPoint" />
          </mxGeometry>
        </mxCell>
        <mxCell id="bC28SBbU8kap-LRpYeoy-23" value="Adding clients" style="text;html=1;strokeColor=none;fillColor=none;align=center;verticalAlign=middle;whiteSpace=wrap;rounded=0;fontColor=#FF9933;" parent="1" vertex="1">
          <mxGeometry x="10" y="250" width="110" height="10" as="geometry" />
        </mxCell>
        <mxCell id="bC28SBbU8kap-LRpYeoy-24" value="Token get by all" style="text;html=1;strokeColor=none;fillColor=none;align=center;verticalAlign=middle;whiteSpace=wrap;rounded=0;fontColor=#FF9933;" parent="1" vertex="1">
          <mxGeometry x="50" y="300" width="110" height="10" as="geometry" />
        </mxCell>
        <mxCell id="bC28SBbU8kap-LRpYeoy-25" value="Token check after authentication" style="text;html=1;strokeColor=none;fillColor=none;align=center;verticalAlign=middle;whiteSpace=wrap;rounded=0;fontColor=#FF9933;" parent="1" vertex="1">
          <mxGeometry x="60" y="360" width="110" height="10" as="geometry" />
        </mxCell>
        <mxCell id="bC28SBbU8kap-LRpYeoy-26" value="AuthenticationManagerBuilder" style="text;whiteSpace=wrap;html=1;fontColor=#1A1A1A;" parent="1" vertex="1">
          <mxGeometry x="380" y="380" width="190" height="30" as="geometry" />
        </mxCell>
        <mxCell id="bC28SBbU8kap-LRpYeoy-27" value="" style="endArrow=classic;html=1;rounded=0;fontColor=#1A1A1A;entryX=0;entryY=0.25;entryDx=0;entryDy=0;" parent="1" source="bC28SBbU8kap-LRpYeoy-10" target="bC28SBbU8kap-LRpYeoy-29" edge="1">
          <mxGeometry width="50" height="50" relative="1" as="geometry">
            <mxPoint x="400" y="340" as="sourcePoint" />
            <mxPoint x="450" y="290" as="targetPoint" />
          </mxGeometry>
        </mxCell>
        <mxCell id="bC28SBbU8kap-LRpYeoy-28" value="" style="endArrow=classic;html=1;rounded=0;fontColor=#1A1A1A;entryX=0;entryY=0.5;entryDx=0;entryDy=0;" parent="1" source="bC28SBbU8kap-LRpYeoy-8" target="bC28SBbU8kap-LRpYeoy-29" edge="1">
          <mxGeometry width="50" height="50" relative="1" as="geometry">
            <mxPoint x="-105" y="425.28169014084506" as="sourcePoint" />
            <mxPoint x="210" y="430" as="targetPoint" />
          </mxGeometry>
        </mxCell>
        <mxCell id="bC28SBbU8kap-LRpYeoy-29" value="Use any type of authentication" style="text;html=1;strokeColor=none;fillColor=none;align=center;verticalAlign=middle;whiteSpace=wrap;rounded=0;fontColor=#FF9933;" parent="1" vertex="1">
          <mxGeometry x="400" y="420" width="110" height="10" as="geometry" />
        </mxCell>
        <mxCell id="bC28SBbU8kap-LRpYeoy-30" value="HttpSecurity" style="text;whiteSpace=wrap;html=1;fontColor=#1A1A1A;" parent="1" vertex="1">
          <mxGeometry x="380" y="215" width="90" height="30" as="geometry" />
        </mxCell>
        <mxCell id="bC28SBbU8kap-LRpYeoy-31" value="&lt;div&gt;&quot;/login&quot;, &lt;br&gt;&lt;/div&gt;&lt;div&gt;&quot;/oauth/authorize&quot;&lt;/div&gt;" style="text;whiteSpace=wrap;html=1;fontColor=#1A1A1A;" parent="1" vertex="1">
          <mxGeometry x="390" y="232.5" width="160" height="30" as="geometry" />
        </mxCell>
        <mxCell id="bC28SBbU8kap-LRpYeoy-32" value="Allow openly" style="text;html=1;strokeColor=none;fillColor=none;align=center;verticalAlign=middle;whiteSpace=wrap;rounded=0;fontColor=#FF9933;" parent="1" vertex="1">
          <mxGeometry x="400" y="270" width="110" height="10" as="geometry" />
        </mxCell>
        <mxCell id="bC28SBbU8kap-LRpYeoy-34" value="" style="endArrow=classic;startArrow=classic;html=1;rounded=0;fontColor=#1A1A1A;entryX=0.653;entryY=1.571;entryDx=0;entryDy=0;entryPerimeter=0;strokeColor=#FF0080;exitX=0.5;exitY=0;exitDx=0;exitDy=0;" parent="1" source="bC28SBbU8kap-LRpYeoy-26" target="bC28SBbU8kap-LRpYeoy-32" edge="1">
          <mxGeometry width="50" height="50" relative="1" as="geometry">
            <mxPoint x="295" y="410" as="sourcePoint" />
            <mxPoint x="450" y="290" as="targetPoint" />
          </mxGeometry>
        </mxCell>
        <mxCell id="bC28SBbU8kap-LRpYeoy-35" value="" style="rounded=1;whiteSpace=wrap;html=1;fillColor=none;strokeColor=#FF8000;" parent="1" vertex="1">
          <mxGeometry x="620" y="180" width="210" height="290" as="geometry" />
        </mxCell>
        <mxCell id="bC28SBbU8kap-LRpYeoy-36" value="@RestController" style="text;html=1;align=center;verticalAlign=middle;resizable=0;points=[];autosize=1;strokeColor=none;fillColor=none;fontColor=#1A1A1A;" parent="1" vertex="1">
          <mxGeometry x="625" y="220" width="100" height="20" as="geometry" />
        </mxCell>
        <mxCell id="bC28SBbU8kap-LRpYeoy-37" value="@GetMapping(&quot;/user/me&quot;)" style="text;html=1;align=center;verticalAlign=middle;resizable=0;points=[];autosize=1;strokeColor=none;fillColor=none;fontColor=#1A1A1A;" parent="1" vertex="1">
          <mxGeometry x="620" y="260" width="160" height="20" as="geometry" />
        </mxCell>
        <mxCell id="bC28SBbU8kap-LRpYeoy-39" value="Principal user(Principal principal) {&lt;br&gt;&amp;nbsp;&amp;nbsp;&amp;nbsp;&amp;nbsp;&amp;nbsp;&amp;nbsp;&amp;nbsp; return principal;&lt;br&gt;&amp;nbsp;&amp;nbsp;&amp;nbsp; }" style="text;html=1;align=center;verticalAlign=middle;resizable=0;points=[];autosize=1;strokeColor=none;fillColor=none;fontColor=#1A1A1A;" parent="1" vertex="1">
          <mxGeometry x="625" y="280" width="200" height="50" as="geometry" />
        </mxCell>
        <mxCell id="bC28SBbU8kap-LRpYeoy-41" value="" style="rounded=1;whiteSpace=wrap;html=1;fillColor=none;strokeColor=#33D61A;" parent="1" vertex="1">
          <mxGeometry x="-220" y="560" width="230" height="290" as="geometry" />
        </mxCell>
        <mxCell id="bC28SBbU8kap-LRpYeoy-42" value="server.port=&lt;b&gt;&lt;font color=&quot;#FF0000&quot;&gt;8082&lt;/font&gt;&lt;/b&gt;" style="text;whiteSpace=wrap;html=1;" parent="1" vertex="1">
          <mxGeometry x="-215" y="570" width="120" height="30" as="geometry" />
        </mxCell>
        <mxCell id="bC28SBbU8kap-LRpYeoy-47" value="clientSecret" style="text;whiteSpace=wrap;html=1;" parent="1" vertex="1">
          <mxGeometry x="-207.5" y="650" width="90" height="30" as="geometry" />
        </mxCell>
        <mxCell id="bC28SBbU8kap-LRpYeoy-48" value="clientId" style="text;whiteSpace=wrap;html=1;" parent="1" vertex="1">
          <mxGeometry x="-207.5" y="630" width="60" height="30" as="geometry" />
        </mxCell>
        <mxCell id="bC28SBbU8kap-LRpYeoy-49" value="redirect-uri-template" style="text;whiteSpace=wrap;html=1;fontColor=#000000;" parent="1" vertex="1">
          <mxGeometry x="-215" y="690" width="130" height="30" as="geometry" />
        </mxCell>
        <mxCell id="bC28SBbU8kap-LRpYeoy-50" value="" style="endArrow=classic;startArrow=classic;html=1;rounded=0;fontColor=#000000;strokeColor=#000000;exitX=0;exitY=0.5;exitDx=0;exitDy=0;entryX=0;entryY=0.5;entryDx=0;entryDy=0;" parent="1" source="bC28SBbU8kap-LRpYeoy-49" target="bC28SBbU8kap-LRpYeoy-7" edge="1">
          <mxGeometry width="50" height="50" relative="1" as="geometry">
            <mxPoint x="300" y="530" as="sourcePoint" />
            <mxPoint x="350" y="480" as="targetPoint" />
            <Array as="points">
              <mxPoint x="-280" y="705" />
              <mxPoint x="-280" y="255" />
            </Array>
          </mxGeometry>
        </mxCell>
        <mxCell id="bC28SBbU8kap-LRpYeoy-51" value="&lt;div&gt;&lt;font color=&quot;#FF0000&quot;&gt;token-uri:&lt;/font&gt;&lt;/div&gt;&lt;div&gt;&amp;nbsp;http://localhost:8081/auth/oauth/token&lt;/div&gt;&lt;div&gt;&lt;font color=&quot;#FF0000&quot;&gt;&amp;nbsp;&amp;nbsp;&amp;nbsp;&amp;nbsp;&amp;nbsp;&amp;nbsp;&amp;nbsp;&amp;nbsp;&amp;nbsp;&amp;nbsp;&amp;nbsp; authorization-uri:&lt;/font&gt;&lt;/div&gt;&lt;div&gt;&amp;nbsp;http://localhost:8081/auth/oauth/authorize&lt;/div&gt;&lt;div&gt;&lt;font color=&quot;#FF0000&quot;&gt;&amp;nbsp;&amp;nbsp;&amp;nbsp;&amp;nbsp;&amp;nbsp;&amp;nbsp;&amp;nbsp;&amp;nbsp;&amp;nbsp;&amp;nbsp;&amp;nbsp; user-info-uri: &lt;/font&gt;&lt;br&gt;&lt;/div&gt;&lt;div&gt;http://localhost:8081/auth/user/me&lt;/div&gt;" style="text;html=1;align=center;verticalAlign=middle;resizable=0;points=[];autosize=1;strokeColor=none;fillColor=none;fontColor=#000000;" parent="1" vertex="1">
          <mxGeometry x="-230" y="730" width="240" height="90" as="geometry" />
        </mxCell>
        <mxCell id="bC28SBbU8kap-LRpYeoy-52" value="" style="rounded=1;whiteSpace=wrap;html=1;fillColor=none;strokeColor=#FF8000;" parent="1" vertex="1">
          <mxGeometry x="250" y="560" width="210" height="290" as="geometry" />
        </mxCell>
        <mxCell id="bC28SBbU8kap-LRpYeoy-54" value="MVC / REST" style="text;html=1;align=center;verticalAlign=middle;resizable=0;points=[];autosize=1;strokeColor=none;fillColor=none;fontColor=#FF0000;" parent="1" vertex="1">
          <mxGeometry x="370" y="560" width="80" height="20" as="geometry" />
        </mxCell>
        <mxCell id="bC28SBbU8kap-LRpYeoy-55" value="@Controller" style="text;whiteSpace=wrap;html=1;fontColor=#000000;" parent="1" vertex="1">
          <mxGeometry x="270" y="570" width="90" height="30" as="geometry" />
        </mxCell>
        <mxCell id="bC28SBbU8kap-LRpYeoy-56" value="@RequestMapping(&quot;/securedPage&quot;)" style="text;whiteSpace=wrap;html=1;fontColor=#000000;" parent="1" vertex="1">
          <mxGeometry x="260" y="600" width="220" height="30" as="geometry" />
        </mxCell>
        <mxCell id="bC28SBbU8kap-LRpYeoy-58" value="WebSecurityConfigurerAdapter" style="text;whiteSpace=wrap;html=1;" parent="1" vertex="1">
          <mxGeometry x="40" y="590" width="190" height="30" as="geometry" />
        </mxCell>
        <mxCell id="bC28SBbU8kap-LRpYeoy-59" value="HttpSecurity" style="text;whiteSpace=wrap;html=1;fontColor=#000000;" parent="1" vertex="1">
          <mxGeometry x="40" y="620" width="90" height="30" as="geometry" />
        </mxCell>
        <mxCell id="bC28SBbU8kap-LRpYeoy-61" value="(&quot;/&quot;, &quot;/login**&quot;).permitAll()" style="text;whiteSpace=wrap;html=1;fontColor=#000000;" parent="1" vertex="1">
          <mxGeometry x="40" y="650" width="160" height="30" as="geometry" />
        </mxCell>
        <mxCell id="bC28SBbU8kap-LRpYeoy-62" value="oauth2Login();" style="text;whiteSpace=wrap;html=1;fontColor=#000000;" parent="1" vertex="1">
          <mxGeometry x="50" y="740" width="100" height="30" as="geometry" />
        </mxCell>
        <mxCell id="bC28SBbU8kap-LRpYeoy-63" value="These requests to be authnticated by oath2" style="text;html=1;strokeColor=none;fillColor=none;align=center;verticalAlign=middle;whiteSpace=wrap;rounded=0;fontColor=#FF9933;" parent="1" vertex="1">
          <mxGeometry x="90" y="790" width="110" height="10" as="geometry" />
        </mxCell>
        <mxCell id="lrQn8u2nCKiRlerPiKT--1" value="&lt;div&gt;ResourceServer&lt;/div&gt;&lt;div&gt;&lt;br&gt;&lt;/div&gt;" style="text;html=1;align=center;verticalAlign=middle;resizable=0;points=[];autosize=1;strokeColor=none;fillColor=none;" parent="1" vertex="1">
          <mxGeometry x="130" y="140" width="100" height="30" as="geometry" />
        </mxCell>
        <mxCell id="lrQn8u2nCKiRlerPiKT--2" value="Client APP" style="text;html=1;align=center;verticalAlign=middle;resizable=0;points=[];autosize=1;strokeColor=none;fillColor=none;" parent="1" vertex="1">
          <mxGeometry x="-215" y="530" width="70" height="20" as="geometry" />
        </mxCell>
        <mxCell id="lrQn8u2nCKiRlerPiKT--6" value="There are open" style="text;html=1;strokeColor=none;fillColor=none;align=center;verticalAlign=middle;whiteSpace=wrap;rounded=0;fontColor=#FF9933;" parent="1" vertex="1">
          <mxGeometry x="90" y="690" width="110" height="10" as="geometry" />
        </mxCell>
        <mxCell id="lrQn8u2nCKiRlerPiKT--7" value="Actor" style="shape=umlActor;verticalLabelPosition=bottom;verticalAlign=top;html=1;outlineConnect=0;" parent="1" vertex="1">
          <mxGeometry x="220" y="970" width="30" height="60" as="geometry" />
        </mxCell>
        <mxCell id="lrQn8u2nCKiRlerPiKT--8" value="" style="endArrow=classic;html=1;rounded=0;exitX=1;exitY=0.3333333333333333;exitDx=0;exitDy=0;exitPerimeter=0;strokeColor=#FF0080;" parent="1" source="lrQn8u2nCKiRlerPiKT--7" target="bC28SBbU8kap-LRpYeoy-56" edge="1">
          <mxGeometry width="50" height="50" relative="1" as="geometry">
            <mxPoint x="240" y="670" as="sourcePoint" />
            <mxPoint x="290" y="620" as="targetPoint" />
          </mxGeometry>
        </mxCell>
        <mxCell id="lrQn8u2nCKiRlerPiKT--9" value="&lt;font color=&quot;#FF0080&quot;&gt;1 . User Try to access the page&lt;/font&gt;" style="text;html=1;strokeColor=none;fillColor=none;align=center;verticalAlign=middle;whiteSpace=wrap;rounded=0;fontColor=#FF9933;" parent="1" vertex="1">
          <mxGeometry x="320" y="900" width="110" height="10" as="geometry" />
        </mxCell>
        <mxCell id="lrQn8u2nCKiRlerPiKT--10" value="" style="endArrow=classic;html=1;rounded=0;entryX=1;entryY=0;entryDx=0;entryDy=0;exitX=0.25;exitY=1;exitDx=0;exitDy=0;strokeColor=#FF0080;" parent="1" source="bC28SBbU8kap-LRpYeoy-56" target="bC28SBbU8kap-LRpYeoy-63" edge="1">
          <mxGeometry width="50" height="50" relative="1" as="geometry">
            <mxPoint x="240" y="690" as="sourcePoint" />
            <mxPoint x="290" y="640" as="targetPoint" />
          </mxGeometry>
        </mxCell>
        <mxCell id="lrQn8u2nCKiRlerPiKT--13" value="&lt;font color=&quot;#CC0066&quot;&gt;2. This req neeeds oauth2&lt;/font&gt;" style="text;html=1;strokeColor=none;fillColor=none;align=center;verticalAlign=middle;whiteSpace=wrap;rounded=0;fontColor=#FF9933;" parent="1" vertex="1">
          <mxGeometry x="220" y="680" width="110" height="10" as="geometry" />
        </mxCell>
        <mxCell id="lrQn8u2nCKiRlerPiKT--14" value="" style="endArrow=classic;html=1;rounded=0;entryX=0;entryY=1;entryDx=0;entryDy=0;exitX=0.5;exitY=0;exitDx=0;exitDy=0;strokeColor=#FF0080;" parent="1" source="bC28SBbU8kap-LRpYeoy-63" target="bC28SBbU8kap-LRpYeoy-31" edge="1">
          <mxGeometry width="50" height="50" relative="1" as="geometry">
            <mxPoint x="325" y="640" as="sourcePoint" />
            <mxPoint x="210" y="800" as="targetPoint" />
          </mxGeometry>
        </mxCell>
        <mxCell id="lrQn8u2nCKiRlerPiKT--15" value="&lt;font color=&quot;#FF0080&quot;&gt;3. Opens login page&lt;/font&gt;" style="text;html=1;strokeColor=none;fillColor=none;align=center;verticalAlign=middle;whiteSpace=wrap;rounded=0;fontColor=#FF9933;" parent="1" vertex="1">
          <mxGeometry x="170" y="510" width="110" height="10" as="geometry" />
        </mxCell>
        <mxCell id="lrQn8u2nCKiRlerPiKT--16" value="&lt;div&gt;http://localhost:8082&lt;/div&gt;&lt;div&gt;/login/oauth2/code/&lt;/div&gt;" style="text;html=1;align=center;verticalAlign=middle;resizable=0;points=[];autosize=1;strokeColor=none;fillColor=none;fontColor=#FF0080;" parent="1" vertex="1">
          <mxGeometry x="-207.5" y="265" width="120" height="30" as="geometry" />
        </mxCell>
        <mxCell id="lrQn8u2nCKiRlerPiKT--17" value="Form Login" style="text;html=1;strokeColor=none;fillColor=none;align=center;verticalAlign=middle;whiteSpace=wrap;rounded=0;fontColor=#FF9933;" parent="1" vertex="1">
          <mxGeometry x="470" y="285" width="110" height="10" as="geometry" />
        </mxCell>
        <mxCell id="lrQn8u2nCKiRlerPiKT--18" value="" style="endArrow=classic;html=1;rounded=0;fontColor=#1A1A1A;entryX=0;entryY=0;entryDx=0;entryDy=0;exitX=1;exitY=0.5;exitDx=0;exitDy=0;" parent="1" source="bC28SBbU8kap-LRpYeoy-48" target="bC28SBbU8kap-LRpYeoy-63" edge="1">
          <mxGeometry width="50" height="50" relative="1" as="geometry">
            <mxPoint x="-105" y="425.28169014084506" as="sourcePoint" />
            <mxPoint x="210" y="427.5" as="targetPoint" />
          </mxGeometry>
        </mxCell>
        <mxCell id="lrQn8u2nCKiRlerPiKT--19" value="" style="endArrow=classic;html=1;rounded=0;fontColor=#1A1A1A;" parent="1" edge="1">
          <mxGeometry width="50" height="50" relative="1" as="geometry">
            <mxPoint x="-140" y="670" as="sourcePoint" />
            <mxPoint x="100" y="810" as="targetPoint" />
          </mxGeometry>
        </mxCell>
        <mxCell id="lrQn8u2nCKiRlerPiKT--25" value="&lt;font color=&quot;#FF0080&quot;&gt;4. Authentication&lt;/font&gt;" style="text;html=1;strokeColor=none;fillColor=none;align=center;verticalAlign=middle;whiteSpace=wrap;rounded=0;fontColor=#FF9933;" parent="1" vertex="1">
          <mxGeometry x="490" y="370" width="110" height="10" as="geometry" />
        </mxCell>
        <mxCell id="lrQn8u2nCKiRlerPiKT--27" value="" style="endArrow=classic;html=1;rounded=0;exitX=0.25;exitY=0;exitDx=0;exitDy=0;strokeColor=#FF0080;entryX=0.956;entryY=0.807;entryDx=0;entryDy=0;entryPerimeter=0;" parent="1" source="bC28SBbU8kap-LRpYeoy-26" target="lrQn8u2nCKiRlerPiKT--31" edge="1">
          <mxGeometry width="50" height="50" relative="1" as="geometry">
            <mxPoint x="260" y="1000" as="sourcePoint" />
            <mxPoint x="229.99999999998226" y="242.5" as="targetPoint" />
          </mxGeometry>
        </mxCell>
        <mxCell id="lrQn8u2nCKiRlerPiKT--28" value="5. Generates Token , attach in URL redirect" style="text;html=1;strokeColor=none;fillColor=none;align=center;verticalAlign=middle;whiteSpace=wrap;rounded=0;fontColor=#FF0080;" parent="1" vertex="1">
          <mxGeometry x="195" y="227.5" width="110" height="60" as="geometry" />
        </mxCell>
        <mxCell id="lrQn8u2nCKiRlerPiKT--31" value="" style="shape=hexagon;perimeter=hexagonPerimeter2;whiteSpace=wrap;html=1;fixedSize=1;fontColor=#FF0080;strokeColor=#FF0080;fillColor=none;" parent="1" vertex="1">
          <mxGeometry x="190" y="185" width="120" height="145" as="geometry" />
        </mxCell>
        <mxCell id="lrQn8u2nCKiRlerPiKT--33" value="" style="endArrow=classic;html=1;rounded=0;fontColor=#000000;strokeColor=#FF0080;exitX=0.671;exitY=1.122;exitDx=0;exitDy=0;exitPerimeter=0;entryX=0;entryY=0.5;entryDx=0;entryDy=0;" parent="1" source="lrQn8u2nCKiRlerPiKT--16" target="lrQn8u2nCKiRlerPiKT--31" edge="1">
          <mxGeometry width="50" height="50" relative="1" as="geometry">
            <mxPoint x="240" y="480" as="sourcePoint" />
            <mxPoint x="290" y="430" as="targetPoint" />
          </mxGeometry>
        </mxCell>
        <mxCell id="wtwOYjqm0ZqfuKQBe0QY-1" value="" style="endArrow=classic;html=1;rounded=0;exitX=0.017;exitY=0.073;exitDx=0;exitDy=0;strokeColor=#FF0080;entryX=1;entryY=0.25;entryDx=0;entryDy=0;exitPerimeter=0;" edge="1" parent="1" source="bC28SBbU8kap-LRpYeoy-37" target="lrQn8u2nCKiRlerPiKT--31">
          <mxGeometry width="50" height="50" relative="1" as="geometry">
            <mxPoint x="437.5" y="390" as="sourcePoint" />
            <mxPoint x="314.72000000000025" y="312.0149999999999" as="targetPoint" />
          </mxGeometry>
        </mxCell>
      </root>
    </mxGraphModel>
  </diagram>
</mxfile>
